<svg xmlns="http://www.w3.org/2000/svg" width="32" height="32" viewBox="0 0 24 24"><g fill="none" stroke="currentColor" stroke-linecap="round" stroke-linejoin="round" stroke-width="1.5" color="currentColor"><path d="M14 3.5c3.771 0 5.657 0 6.828 1.245S22 7.993 22 12s0 6.01-1.172 7.255S17.771 20.5 14 20.5h-4c-3.771 0-5.657 0-6.828-1.245S2 16.007 2 12s0-6.01 1.172-7.255S6.229 3.5 10 3.5z"/><path d="M5 15.5c1.609-2.137 5.354-2.254 7 0m-1.751-5.25a1.75 1.75 0 1 1-3.5 0a1.75 1.75 0 0 1 3.5 0M15 9.5h4m-4 4h2"/></g></svg>