<svg xmlns="http://www.w3.org/2000/svg" width="32" height="32" viewBox="0 0 24 24"><path fill="none" stroke="currentColor" stroke-linecap="round" stroke-linejoin="round" stroke-width="1.5" d="m17.562 9.222l-.526.928c-.495.873-.743 1.309-1.282 1.347c-.54.038-.768-.274-1.225-.898a5.2 5.2 0 0 1-.948-2.37c-.107-.799-.16-1.198-.29-1.395c-.206-.313-.622-.485-.932-.667c-.817-.48-1.226-.72-1.333-1.129c-.108-.407.128-.823.6-1.655s.708-1.248 1.109-1.357c.4-.11.81.131 1.627.611c.31.183.664.462 1.034.488c.232.016.599-.137 1.332-.442a4.95 4.95 0 0 1 2.491-.35c.76.091 1.14.137 1.376.63c.238.495-.01.931-.505 1.804l-.526.926m-2.002 3.53l.434.254a1.984 1.984 0 0 0 2.735-.745a2.057 2.057 0 0 0-.733-2.784l-.434-.255m-2.002 3.53l2.002-3.53M7 13a2 2 0 1 1-4 0a2 2 0 0 1 4 0m-1-1l7-5M7 22h7m-8-7l5 7" color="currentColor"/></svg>